<svg width="1279" height="900" viewBox="0 0 1279 900" fill="none" xmlns="http://www.w3.org/2000/svg">
<path d="M1078.23 806.226C1007.73 876.726 917.644 924.478 819.371 943.441C721.097 962.405 619.047 951.73 526.124 912.766C433.202 873.802 353.581 808.299 297.33 724.54C241.079 640.781 210.724 542.529 210.104 442.207C209.484 341.885 238.627 244 293.848 160.93C349.068 77.8593 427.886 13.3349 520.334 -24.484C612.782 -62.3029 714.709 -71.7178 813.224 -51.5381C911.739 -31.3585 1002.42 17.5094 1073.79 88.8859L919.71 242.971C879.187 202.449 827.706 174.705 771.776 163.248C715.846 151.792 657.98 157.137 605.494 178.608C553.009 200.079 508.262 236.711 476.912 283.872C445.561 331.034 429.016 386.606 429.368 443.561C429.72 500.517 446.953 556.298 478.888 603.85C510.824 651.402 556.027 688.59 608.782 710.711C661.536 732.832 719.473 738.893 775.266 728.126C831.058 717.36 882.201 690.25 922.225 650.226L1078.23 806.226Z" fill="#FFD860"/>
</svg>
