<svg width="1435" height="1435" viewBox="0 0 1435 1435" fill="none" xmlns="http://www.w3.org/2000/svg">
<path d="M1078.23 1078.23C1007.73 1148.73 917.644 1196.48 819.371 1215.44C721.097 1234.41 619.047 1223.73 526.124 1184.77C433.202 1145.8 353.581 1080.3 297.33 996.54C241.079 912.781 210.724 814.529 210.104 714.207C209.484 613.885 238.627 516 293.848 432.93C349.068 349.859 427.886 285.335 520.334 247.516C612.782 209.697 714.709 200.282 813.224 220.462C911.739 240.642 1002.42 289.509 1073.79 360.886L919.71 514.971C879.187 474.449 827.706 446.705 771.776 435.248C715.846 423.792 657.98 429.137 605.494 450.608C553.009 472.079 508.262 508.711 476.912 555.872C445.561 603.034 429.016 658.606 429.368 715.561C429.72 772.517 446.953 828.298 478.888 875.85C510.824 923.402 556.027 960.59 608.782 982.711C661.536 1004.83 719.473 1010.89 775.266 1000.13C831.058 989.36 882.201 962.25 922.226 922.226L1078.23 1078.23Z" fill="#FFD860"/>
</svg>
