<svg width="447" height="447" viewBox="0 0 447 447" fill="none" xmlns="http://www.w3.org/2000/svg">
<circle cx="223.5" cy="223.5" r="220.5" stroke="#E70013" stroke-width="6"/>
<path d="M363.731 247.962C363.329 263.819 359.739 279.486 353.128 294.171C346.1 309.781 335.79 323.982 322.775 335.956C309.76 347.93 294.295 357.44 277.258 363.933C260.221 370.425 241.953 373.769 223.5 373.769C205.046 373.769 186.779 370.425 169.741 363.933C152.705 357.44 137.24 347.93 124.224 335.956C111.21 323.982 100.9 309.781 93.872 294.171C87.2606 279.486 83.6711 263.819 83.2688 247.962H105.12C105.518 261.313 108.569 274.489 114.126 286.831C120.098 300.095 128.844 312.131 139.851 322.258C150.858 332.384 163.911 340.404 178.261 345.872C192.61 351.34 207.981 354.152 223.5 354.152C239.019 354.152 254.39 351.34 268.739 345.872C283.089 340.404 296.142 332.384 307.149 322.258C318.156 312.131 326.902 300.095 332.874 286.831C338.431 274.489 341.482 261.313 341.88 247.962H363.731Z" stroke="#E70013" stroke-width="6"/>
<path d="M269.346 191.846C266.347 191.846 262.824 189.337 259.873 183.433C257.01 177.709 255.154 169.592 255.154 160.462C255.154 151.331 257.01 143.214 259.873 137.49C262.824 131.586 266.347 129.077 269.346 129.077C272.345 129.077 275.868 131.586 278.82 137.49C281.682 143.214 283.538 151.331 283.538 160.462C283.538 169.592 281.682 177.709 278.82 183.433C275.868 189.337 272.345 191.846 269.346 191.846Z" stroke="#E70013" stroke-width="6"/>
<path d="M189.115 191.846C186.116 191.846 182.594 189.337 179.642 183.433C176.78 177.709 174.923 169.592 174.923 160.462C174.923 151.331 176.78 143.214 179.642 137.49C182.594 131.586 186.116 129.077 189.115 129.077C192.114 129.077 195.637 131.586 198.589 137.49C201.451 143.214 203.308 151.331 203.308 160.462C203.308 169.592 201.451 177.709 198.589 183.433C195.637 189.337 192.114 191.846 189.115 191.846Z" stroke="#E70013" stroke-width="6"/>
</svg>
