<svg width="447" height="447" viewBox="0 0 447 447" fill="none" xmlns="http://www.w3.org/2000/svg">
<circle cx="223.5" cy="223.5" r="222" stroke="#E70013" stroke-width="3"/>
<mask id="path-2-inside-1" fill="white">
<path d="M366.769 244.962C366.769 262.271 363.063 279.411 355.863 295.402C348.663 311.394 338.11 325.924 324.807 338.164C311.503 350.403 295.709 360.112 278.327 366.736C260.944 373.36 242.314 376.769 223.5 376.769C204.686 376.769 186.055 373.36 168.673 366.736C151.291 360.112 135.497 350.403 122.193 338.164C108.89 325.924 98.3364 311.394 91.1364 295.402C83.9365 279.41 80.2307 262.271 80.2307 244.962H108.075C108.075 258.907 111.061 272.715 116.861 285.599C122.662 298.483 131.164 310.189 141.882 320.05C152.601 329.91 165.325 337.732 179.329 343.069C193.333 348.406 208.342 351.152 223.5 351.152C238.658 351.152 253.667 348.406 267.671 343.069C281.675 337.732 294.399 329.91 305.118 320.05C315.836 310.189 324.338 298.483 330.138 285.599C335.939 272.715 338.925 258.907 338.925 244.962H366.769Z"/>
</mask>
<path d="M366.769 244.962C366.769 262.271 363.063 279.411 355.863 295.402C348.663 311.394 338.11 325.924 324.807 338.164C311.503 350.403 295.709 360.112 278.327 366.736C260.944 373.36 242.314 376.769 223.5 376.769C204.686 376.769 186.055 373.36 168.673 366.736C151.291 360.112 135.497 350.403 122.193 338.164C108.89 325.924 98.3364 311.394 91.1364 295.402C83.9365 279.41 80.2307 262.271 80.2307 244.962H108.075C108.075 258.907 111.061 272.715 116.861 285.599C122.662 298.483 131.164 310.189 141.882 320.05C152.601 329.91 165.325 337.732 179.329 343.069C193.333 348.406 208.342 351.152 223.5 351.152C238.658 351.152 253.667 348.406 267.671 343.069C281.675 337.732 294.399 329.91 305.118 320.05C315.836 310.189 324.338 298.483 330.138 285.599C335.939 272.715 338.925 258.907 338.925 244.962H366.769Z" stroke="#E70013" stroke-width="6" mask="url(#path-2-inside-1)"/>
<path d="M269.346 193.346C265.473 193.346 261.562 190.167 258.531 184.104C255.544 178.131 253.654 169.774 253.654 160.462C253.654 151.149 255.544 142.792 258.531 136.819C261.562 130.756 265.473 127.577 269.346 127.577C273.219 127.577 277.13 130.756 280.161 136.819C283.148 142.792 285.038 151.149 285.038 160.462C285.038 169.774 283.148 178.131 280.161 184.104C277.13 190.167 273.219 193.346 269.346 193.346Z" stroke="#E70013" stroke-width="3"/>
<path d="M189.115 193.346C185.242 193.346 181.332 190.167 178.3 184.104C175.314 178.131 173.423 169.774 173.423 160.462C173.423 151.149 175.314 142.792 178.3 136.819C181.332 130.756 185.242 127.577 189.115 127.577C192.989 127.577 196.899 130.756 199.931 136.819C202.917 142.792 204.808 151.149 204.808 160.462C204.808 169.774 202.917 178.131 199.931 184.104C196.899 190.167 192.989 193.346 189.115 193.346Z" stroke="#E70013" stroke-width="3"/>
</svg>
