<svg width="447" height="447" viewBox="0 0 447 447" fill="none" xmlns="http://www.w3.org/2000/svg">
<circle cx="223.5" cy="223.5" r="222" stroke="#E70013" stroke-width="3"/>
<mask id="path-2-inside-1" fill="white">
<path d="M366.769 234.962C366.769 252.271 363.063 269.411 355.863 285.402C348.663 301.394 338.11 315.924 324.807 328.164C311.503 340.403 295.709 350.112 278.327 356.736C260.944 363.36 242.314 366.769 223.5 366.769C204.686 366.769 186.055 363.36 168.673 356.736C151.291 350.112 135.497 340.403 122.193 328.164C108.89 315.924 98.3364 301.394 91.1364 285.402C83.9365 269.41 80.2307 252.271 80.2307 234.962H108.075C108.075 248.907 111.061 262.715 116.861 275.599C122.662 288.483 131.164 300.189 141.882 310.05C152.601 319.91 165.325 327.732 179.329 333.069C193.333 338.406 208.342 341.152 223.5 341.152C238.658 341.152 253.667 338.406 267.671 333.069C281.675 327.732 294.399 319.91 305.118 310.05C315.836 300.189 324.338 288.483 330.138 275.599C335.939 262.715 338.925 248.907 338.925 234.962H366.769Z"/>
</mask>
<path d="M366.769 234.962C366.769 252.271 363.063 269.411 355.863 285.402C348.663 301.394 338.11 315.924 324.807 328.164C311.503 340.403 295.709 350.112 278.327 356.736C260.944 363.36 242.314 366.769 223.5 366.769C204.686 366.769 186.055 363.36 168.673 356.736C151.291 350.112 135.497 340.403 122.193 328.164C108.89 315.924 98.3364 301.394 91.1364 285.402C83.9365 269.41 80.2307 252.271 80.2307 234.962H108.075C108.075 248.907 111.061 262.715 116.861 275.599C122.662 288.483 131.164 300.189 141.882 310.05C152.601 319.91 165.325 327.732 179.329 333.069C193.333 338.406 208.342 341.152 223.5 341.152C238.658 341.152 253.667 338.406 267.671 333.069C281.675 327.732 294.399 319.91 305.118 310.05C315.836 300.189 324.338 288.483 330.138 275.599C335.939 262.715 338.925 248.907 338.925 234.962H366.769Z" stroke="#E70013" stroke-width="6" mask="url(#path-2-inside-1)"/>
<path d="M269.346 193.346C265.473 193.346 261.562 190.167 258.531 184.104C255.544 178.131 253.654 169.774 253.654 160.462C253.654 151.149 255.544 142.792 258.531 136.819C261.562 130.756 265.473 127.577 269.346 127.577C273.219 127.577 277.13 130.756 280.161 136.819C283.148 142.792 285.038 151.149 285.038 160.462C285.038 169.774 283.148 178.131 280.161 184.104C277.13 190.167 273.219 193.346 269.346 193.346Z" stroke="#E70013" stroke-width="3"/>
<path d="M189.115 193.346C185.242 193.346 181.332 190.167 178.3 184.104C175.314 178.131 173.423 169.774 173.423 160.462C173.423 151.149 175.314 142.792 178.3 136.819C181.332 130.756 185.242 127.577 189.115 127.577C192.989 127.577 196.899 130.756 199.931 136.819C202.917 142.792 204.808 151.149 204.808 160.462C204.808 169.774 202.917 178.131 199.931 184.104C196.899 190.167 192.989 193.346 189.115 193.346Z" stroke="#E70013" stroke-width="3"/>
</svg>
